<?xml version="1.0" encoding="utf-8"?>
<!-- Generator: Adobe Illustrator 24.0.2, SVG Export Plug-In . SVG Version: 6.00 Build 0)  -->
<svg version="1.1" xmlns="http://www.w3.org/2000/svg" xmlns:xlink="http://www.w3.org/1999/xlink" x="0px" y="0px"
	 viewBox="0 0 24 24" style="enable-background:new 0 0 24 24;" xml:space="preserve">
<style type="text/css">
	.st0{fill:none;}
	.st1{fill:#121331;}
</style>
<g id="bounding_area">
	<rect class="st0" width="24" height="24"/>
</g>
<g id="design">
	<g>
		<path class="st1" d="M9.25,21h-4.5C3.78,21,3,20.21,3,19.25v-4.5C3,13.79,3.78,13,4.75,13h4.5c0.96,0,1.75,0.79,1.75,1.75v4.5
			C11,20.21,10.21,21,9.25,21z M4.75,14.5c-0.14,0-0.25,0.11-0.25,0.25v4.5c0,0.14,0.11,0.25,0.25,0.25h4.5
			c0.14,0,0.25-0.11,0.25-0.25v-4.5c0-0.14-0.11-0.25-0.25-0.25H4.75z"/>
		<path class="st1" d="M9.25,11h-4.5C3.78,11,3,10.21,3,9.25v-4.5C3,3.79,3.78,3,4.75,3h4.5C10.21,3,11,3.79,11,4.75v4.5
			C11,10.21,10.21,11,9.25,11z M4.75,4.5C4.61,4.5,4.5,4.61,4.5,4.75v4.5c0,0.14,0.11,0.25,0.25,0.25h4.5
			c0.14,0,0.25-0.11,0.25-0.25v-4.5c0-0.14-0.11-0.25-0.25-0.25H4.75z"/>
		<path class="st1" d="M19.25,11h-4.5C13.78,11,13,10.21,13,9.25v-4.5C13,3.79,13.78,3,14.75,3h4.5C20.21,3,21,3.79,21,4.75v4.5
			C21,10.21,20.21,11,19.25,11z M14.75,4.5c-0.14,0-0.25,0.11-0.25,0.25v4.5c0,0.14,0.11,0.25,0.25,0.25h4.5
			c0.14,0,0.25-0.11,0.25-0.25v-4.5c0-0.14-0.11-0.25-0.25-0.25H14.75z"/>
		<g>
			<path class="st1" d="M21,17c0,0.41-0.34,0.75-0.75,0.75h-2.5v2.5c0,0.41-0.34,0.75-0.75,0.75s-0.75-0.34-0.75-0.75v-2.5h-2.5
				C13.34,17.75,13,17.41,13,17c0-0.41,0.34-0.75,0.75-0.75h2.5v-2.5c0-0.41,0.34-0.75,0.75-0.75s0.75,0.34,0.75,0.75v2.5h2.5
				C20.66,16.25,21,16.59,21,17z"/>
		</g>
	</g>
</g>
</svg>
