<?xml version="1.0" encoding="utf-8"?>
<!-- Generator: Adobe Illustrator 24.0.2, SVG Export Plug-In . SVG Version: 6.00 Build 0)  -->
<svg version="1.1" xmlns="http://www.w3.org/2000/svg" xmlns:xlink="http://www.w3.org/1999/xlink" x="0px" y="0px"
	 viewBox="0 0 24 24" style="enable-background:new 0 0 24 24;" xml:space="preserve">
<style type="text/css">
	.st0{fill:none;}
	.st1{display:none;}
	.st2{display:inline;}
	.st3{fill:none;stroke:#CECECE;stroke-width:0.1;stroke-miterlimit:10;}
	.st4{fill:#121331;}
</style>
<g id="bounding_box">
	<rect x="0" y="0" class="st0" width="24" height="24"/>
</g>
<g id="design">
	<path class="st4" d="M19.25,21h-3c-1.52,0-2.75-1.23-2.75-2.75v-3.5c0-0.14-0.11-0.25-0.25-0.25h-2.5c-0.14,0-0.25,0.11-0.25,0.25
		v3.5c0,1.52-1.23,2.75-2.75,2.75h-3C3.79,21,3,20.21,3,19.25V9.77C3,9.2,3.28,8.66,3.75,8.34L11,3.28c0.6-0.42,1.4-0.42,2,0
		l7.25,5.05C20.72,8.66,21,9.2,21,9.77v9.48C21,20.21,20.21,21,19.25,21z M10.75,13h2.5c0.96,0,1.75,0.79,1.75,1.75v3.5
		c0,0.69,0.56,1.25,1.25,1.25h3c0.14,0,0.25-0.11,0.25-0.25V9.77c0-0.08-0.04-0.16-0.11-0.21l-7.25-5.05c-0.09-0.06-0.2-0.06-0.29,0
		L4.61,9.57C4.54,9.61,4.5,9.69,4.5,9.77v9.48c0,0.14,0.11,0.25,0.25,0.25h3C8.44,19.5,9,18.94,9,18.25v-3.5
		C9,13.79,9.79,13,10.75,13z"/>
</g>
</svg>
